<svg width="72" height="72" viewBox="0 0 72 72" fill="none" xmlns="http://www.w3.org/2000/svg">
<circle cx="36" cy="36" r="36" fill="white" fill-opacity="0.8"/>
<path d="M27.0132 23.3335C25.9962 23.3335 25.1128 23.519 24.4961 24.0999C23.8692 24.6903 23.6665 25.5464 23.6665 26.5202V45.4802C23.6665 46.4539 23.8692 47.31 24.4961 47.9005C25.1128 48.4813 25.9962 48.6668 27.0132 48.6668H31.8532C32.8702 48.6668 33.7535 48.4813 34.3703 47.9005C34.9972 47.31 35.1998 46.4539 35.1998 45.4802V26.5202C35.1998 25.5464 34.9972 24.6903 34.3703 24.0999C33.7535 23.519 32.8702 23.3335 31.8532 23.3335H27.0132Z" fill="black" fill-opacity="0.5"/>
<path d="M42.1465 23.3335C41.1349 23.3335 40.253 23.5195 39.6354 24.099C39.0071 24.6884 38.7998 25.5436 38.7998 26.5202V45.4802C38.7998 46.4539 39.0025 47.31 39.6294 47.9005C40.2462 48.4813 41.1295 48.6668 42.1465 48.6668H46.9865C48.0035 48.6668 48.8868 48.4813 49.5036 47.9005C50.1305 47.31 50.3332 46.4539 50.3332 45.4802V26.5202C50.3332 25.5464 50.1305 24.6903 49.5036 24.0999C48.8868 23.519 48.0035 23.3335 46.9865 23.3335H42.1465Z" fill="black" fill-opacity="0.5"/>
</svg>
